<svg xmlns="http://www.w3.org/2000/svg" viewBox="0 0 200 150" width="200" height="150">
<path d="M16 128h168" stroke="#F5F1EB" stroke-width="3" stroke-linecap="round"/>
<path d="M42 60q0-12 12-12h20q12 0 12 12" fill="none" stroke="#F5F1EB" stroke-width="4"/>
<rect x="26" y="58" width="88" height="22" rx="9" fill="#B9552F" stroke="#F5F1EB" stroke-width="3"/>
<rect x="30" y="80" width="80" height="48" rx="9" fill="#D96B41" stroke="#F5F1EB" stroke-width="3"/>
<rect x="62" y="68" width="16" height="12" rx="3" fill="#FAF8F5" stroke="#F5F1EB" stroke-width="2"/>
<circle cx="54" cy="100" r="5" fill="#FAF8F5"/>
<circle cx="86" cy="100" r="5" fill="#FAF8F5"/>
<circle cx="55" cy="101" r="2" fill="#F5F1EB"/>
<circle cx="87" cy="101" r="2" fill="#F5F1EB"/>
<path d="M60 117q10-6 20 0" fill="none" stroke="#FAF8F5" stroke-width="3" stroke-linecap="round"/>
<path d="M102 48l-6 16 20-16z" fill="#211D17" stroke="#F5F1EB" stroke-width="3" stroke-linejoin="round"/>
<rect x="88" y="6" width="104" height="44" rx="14" fill="#211D17" stroke="#F5F1EB" stroke-width="3"/>
<text x="140" y="26" text-anchor="middle" font-size="12" font-weight="600" fill="#F5F1EB" font-family="Inter,sans-serif">Oye, mujhe</text>
<text x="140" y="41" text-anchor="middle" font-size="12" font-weight="600" fill="#F5F1EB" font-family="Inter,sans-serif">bhool gaye?</text>
</svg>