<svg xmlns="http://www.w3.org/2000/svg" viewBox="0 0 200 150" width="200" height="150">
<ellipse cx="100" cy="140" rx="60" ry="5" fill="#332C22"/>
<rect x="64" y="12" width="72" height="124" rx="12" fill="#211D17" stroke="#F5F1EB" stroke-width="3"/>
<path d="M64 70h72" stroke="#F5F1EB" stroke-width="3"/>
<rect x="124" y="30" width="5" height="22" rx="2.5" fill="#F5F1EB"/>
<rect x="124" y="84" width="5" height="22" rx="2.5" fill="#F5F1EB"/>
<circle cx="87" cy="38" r="4" fill="#F5F1EB"/>
<circle cx="108" cy="38" r="4" fill="#F5F1EB"/>
<path d="M86 56q11-9 22 0M80 32l12-4M115 28l12 4" fill="none" stroke="#F5F1EB" stroke-width="3" stroke-linecap="round"/>
<ellipse cx="96" cy="121" rx="8" ry="6" fill="#D96B41"/>
<circle cx="94" cy="119" r="2" fill="#FAF8F5"/>
<path d="M146 40q10 8 0 18t8 16" fill="none" stroke="#A39A8E" stroke-width="2" stroke-dasharray="3 4"/>
<circle cx="154" cy="78" r="3" fill="#F5F1EB"/>
</svg>