<svg xmlns="http://www.w3.org/2000/svg" viewBox="0 0 1024 1024" width="1024" height="1024"><rect width="1024" height="1024" fill="#D96B41"/><g transform="translate(131.853,45.333) scale(9.33333)"><path fill="#FAF8F5" fill-rule="evenodd" d="M36.46,20 A11.46,11.46 0 0,1 47.92,31.46 A11.46,11.46 0 0,1 36.46,42.92 A18.54,18.54 0 0,1 55,61.46 A18.54,18.54 0 0,1 36.46,80 L31.46,80 A5,5 0 0,1 26.46,75 L26.46,25 A5,5 0 0,1 31.46,20 Z M36.46,28 A3.46,3.46 0 0,0 36.46,34.92 L36.46,28 Z M36.46,50.92 A10.54,10.54 0 0,1 36.46,72 L36.46,50.92 Z"/><path fill="#D96B41" fill-rule="evenodd" d="M39.5,29.5 A2.5,2.5 0 0,1 44.5,29.5 C44.5,31.2 42,35.5 42,35.5 C42,35.5 39.5,31.2 39.5,29.5 Z M42.9,29.5 A0.9,0.9 0 1,0 41.1,29.5 A0.9,0.9 0 1,0 42.9,29.5 Z"/></g></svg>